<?xml version="1.0" encoding="utf-8"?>
<!-- Generator: Adobe Illustrator 23.0.1, SVG Export Plug-In . SVG Version: 6.00 Build 0)  -->
<svg version="1.1" id="Layer_1" xmlns="http://www.w3.org/2000/svg" xmlns:xlink="http://www.w3.org/1999/xlink" x="0px" y="0px"
	 viewBox="0 0 49 54.7" style="enable-background:new 0 0 49 54.7;" xml:space="preserve">
<style type="text/css">
	.st0{fill-rule:evenodd;clip-rule:evenodd;fill:#012B4D;}
	.st1{fill:#FFFFFF;}
</style>
<path class="st0" d="M24.5,0C38,0,49,11,49,24.5C49,38,38,49,24.5,49C11,49,0,38,0,24.5C0,11,11,0,24.5,0z"/>
<path class="st0" d="M12.3,42L25,29.3L37.7,42L25,54.7L12.3,42z"/>
<path class="st1" d="M35.2,36.6v-5.8H23.1v5.8H35.2z M23.1,26.5H35v-5.7H23.1V26.5z M23.1,16.8h12.2V11H23.1V16.8z M19.9,11H14v25.6
	h5.9V11z"/>
</svg>
