<svg width="51" height="57" viewBox="0 0 51 57" fill="none" xmlns="http://www.w3.org/2000/svg">
<path fill-rule="evenodd" clip-rule="evenodd" d="M25.5 1.00016C39.0309 1.00016 50 11.9689 50 25.5001C50 39.0309 39.0309 50 25.5 50C11.969 50 0.999957 39.0309 0.999957 25.5001C0.999957 11.9689 11.969 1.00016 25.5 1.00016Z" fill="#012B4D"/>
<path fill-rule="evenodd" clip-rule="evenodd" d="M13.272 43.0001L25.9999 30.2723L38.728 43.0001L25.9999 55.7279L13.272 43.0001Z" fill="#012B4D"/>
<path d="M36.2 37.6V31.8H24.1V37.6H36.2ZM24.1 27.5H36V21.8H24.1V27.5ZM24.1 17.8H36.3V12H24.1V17.8ZM20.9 12H15V37.6H20.9V12Z" fill="white"/>
</svg>
