<svg width="55" height="60" viewBox="0 0 55 60" fill="none" xmlns="http://www.w3.org/2000/svg">
<path fill-rule="evenodd" clip-rule="evenodd" d="M27.8437 1.00003C42.1168 1.00003 53.6875 12.5707 53.6875 26.8438C53.6875 41.1169 42.1168 52.6875 27.8437 52.6875C13.5707 52.6875 2.00003 41.1169 2.00003 26.8438C2.00003 12.5707 13.5707 1.00003 27.8437 1.00003Z" fill="#012B4D"/>
<path fill-rule="evenodd" clip-rule="evenodd" d="M14.0003 45.3024L27.4267 31.876L40.853 45.3024L27.4267 58.7281L14.0003 45.3024Z" fill="#012B4D"/>
<path fill-rule="evenodd" clip-rule="evenodd" d="M28 5.99999C39.598 5.99999 49 15.4021 49 27.0001C49 38.5981 39.598 47.9999 28 47.9999C16.402 47.9999 6.99999 38.5981 6.99999 27.0001C6.99999 15.4021 16.402 5.99999 28 5.99999Z" fill="white"/>
</svg>
